PathFileType	4	(X/Y/Z)	C:\Users\willi\Documents\UniDataLokal\DATA_Hans_PhD\TD04\B\3DGAIT_B_W12\marker_experimental.trc
DataRate	CameraRate	NumFrames	NumMarkers	Units	OrigDataRate	OrigDataStartFrame	OrigNumFrames
100.000000	100.000000	4	97	mm	100.000000	95	191
Frame#	Time	RBAK			C7			CLAV			T10			STRN			RASI			RPSI			LPSI			LASI			LPELV			RPELV			RTHI1			RTHI2			RTHI3			RTHI			RKNE			RKNEM			RPAT			RLKNEL			RLKNEM			RLPAT			RTIB1			RTIB2			RTIB3			RTIB			RANK			RANKM			RHEEL			RTOE			RM5			LTHI1			LTHI2			LTHI3			LTHI			LKNE			LKNEM			LPAT			LLKNE			LLKNEM			LLPAT			LTIB1			LTIB2			LTIB3			LTIB			LANK			LANKM			LHEEL			LTOE			LM5			*49			*50			*51			*52			*53			*54			*55			*56			*57			*58			*59			*60			*61			*62			*63			*64			*65			*66			*67			*68			*69			*70			*71			*72			*73			*74			*75			*76			*77			*78			*79			*80			*81			*82			*83			*84			*85			*86			*87			*88			*89			*90			*91			*92			*93			*94			*95			*96			
		X1	Y1	Z1	X2	Y2	Z2	X3	Y3	Z3	X4	Y4	Z4	X5	Y5	Z5	X6	Y6	Z6	X7	Y7	Z7	X8	Y8	Z8	X9	Y9	Z9	X10	Y10	Z10	X11	Y11	Z11	X12	Y12	Z12	X13	Y13	Z13	X14	Y14	Z14	X15	Y15	Z15	X16	Y16	Z16	X17	Y17	Z17	X18	Y18	Z18	X19	Y19	Z19	X20	Y20	Z20	X21	Y21	Z21	X22	Y22	Z22	X23	Y23	Z23	X24	Y24	Z24	X25	Y25	Z25	X26	Y26	Z26	X27	Y27	Z27	X28	Y28	Z28	X29	Y29	Z29	X30	Y30	Z30	X31	Y31	Z31	X32	Y32	Z32	X33	Y33	Z33	X34	Y34	Z34	X35	Y35	Z35	X36	Y36	Z36	X37	Y37	Z37	X38	Y38	Z38	X39	Y39	Z39	X40	Y40	Z40	X41	Y41	Z41	X42	Y42	Z42	X43	Y43	Z43	X44	Y44	Z44	X45	Y45	Z45	X46	Y46	Z46	X47	Y47	Z47	X48	Y48	Z48	X49	Y49	Z49	X50	Y50	Z50	X51	Y51	Z51	X52	Y52	Z52	X53	Y53	Z53	X54	Y54	Z54	X55	Y55	Z55	X56	Y56	Z56	X57	Y57	Z57	X58	Y58	Z58	X59	Y59	Z59	X60	Y60	Z60	X61	Y61	Z61	X62	Y62	Z62	X63	Y63	Z63	X64	Y64	Z64	X65	Y65	Z65	X66	Y66	Z66	X67	Y67	Z67	X68	Y68	Z68	X69	Y69	Z69	X70	Y70	Z70	X71	Y71	Z71	X72	Y72	Z72	X73	Y73	Z73	X74	Y74	Z74	X75	Y75	Z75	X76	Y76	Z76	X77	Y77	Z77	X78	Y78	Z78	X79	Y79	Z79	X80	Y80	Z80	X81	Y81	Z81	X82	Y82	Z82	X83	Y83	Z83	X84	Y84	Z84	X85	Y85	Z85	X86	Y86	Z86	X87	Y87	Z87	X88	Y88	Z88	X89	Y89	Z89	X90	Y90	Z90	X91	Y91	Z91	X92	Y92	Z92	X93	Y93	Z93	X94	Y94	Z94	X95	Y95	Z95	X96	Y96	Z96	X97	Y97	Z97	

96	0.9500000000000001	-536.4407348632811	1302.913208007812	337.7180786132812	-502.2419738769531	1351.961181640625	243.681640625	-391.0772399902343	1271.039428710938	253.579116821289	-513.5305786132811	973.0508422851562	243.6722259521484	-326.1437377929687	1025.569702148438	238.6318969726562	-336.6005859374999	884.2606201171875	348.3818969726562	-524.0604858398438	905.3330078125	297.4462280273437	-534.939208984375	898.698486328125	208.4119720458984	-350.6330871582031	858.4806518554688	143.6262817382812	-438.9172363281249	930.9909057617188	94.87686920166013	-439.9126281738281	955.5018920898438	391.5325927734375	-418.4885253906249	617.3046264648438	394.6558227539062	-360.2500610351562	576.3021240234375	400.7660827636719	-385.8150024414062	519.0543212890625	375.1591491699219	-291.6648559570312	557.7528686523438	423.9947204589844	-287.6744079589843	465.5167846679688	366.3307800292969	-329.0733642578125	448.5464782714844	248.9755096435547	-250.2124786376953	463.3964538574219	288.8878173828125	-291.69873046875	429.6673278808594	367.3759765625	-342.5785522460938	397.7037963867188	258.4483642578125	-262.3651123046875	391.2640380859375	311.5452575683594	-264.8908996582031	284.6860656738281	314.9490051269531	-280.1848754882812	241.86279296875	362.0834655761719	-270.9125366210938	189.9173278808594	316.9285583496094	-324.759521484375	185.9852294921875	408.2948913574219	-319.9766540527344	70.19303131103517	352.8327941894531	-303.5364379882812	84.49014282226564	277.5420837402344	-366.1412353515625	34.46601486206057	314.2099914550781	-181.8560333251953	37.15889739990236	338.4920349121094	-207.169662475586	16.42871093750001	376.1189270019531	-501.0922851562499	597.9649047851562	124.7048187255859	-463.1405639648437	549.589599609375	99.03022003173825	-492.6584472656249	500.6773681640626	134.1602325439453	-428.6202087402343	518.4025268554688	58.12388610839841	-440.12890625	420.2309875488281	111.3825225830078	-442.0514221191406	411.0743408203125	237.9963684082031	-371.4502868652344	393.2491455078125	170.7438507080078	-473.5037841796875	401.1327819824219	112.472915649414	-467.3601684570312	378.1086425781251	230.5406188964843	-448.5690612792969	341.2417602539062	157.0195617675781	-562.6610107421875	259.7796936035157	163.1450805664062	-620.8843994140625	247.6893157958985	126.4421615600586	-640.7555541992188	203.3418121337891	168.6282501220703	-675.5808715820312	287.2154541015626	91.48606109619136	-746.5595703125	194.5891723632813	146.6831054687499	-713.7671508789062	169.8111724853516	209.183853149414	-784.4613037109375	213.1371459960938	201.0079956054687	-735.7772827148438	49.93470001220707	146.8675689697265	-770.9041748046875	64.78210449218754	118.150032043457	nan	nan	nan	nan	nan	nan	nan	nan	nan	nan	nan	nan	nan	nan	nan	nan	nan	nan	nan	nan	nan	nan	nan	nan	nan	nan	nan	nan	nan	nan	nan	nan	nan	nan	nan	nan	nan	nan	nan	nan	nan	nan	nan	nan	nan	nan	nan	nan	nan	nan	nan	nan	nan	nan	nan	nan	nan	nan	nan	nan	nan	nan	nan	nan	nan	nan	nan	nan	nan	nan	nan	nan	nan	nan	nan	nan	nan	nan	nan	nan	nan	nan	nan	nan	nan	nan	nan	nan	nan	nan	nan	nan	nan	nan	nan	nan	nan	nan	nan	nan	nan	nan	nan	nan	nan	nan	nan	nan	nan	nan	nan	nan	nan	nan	nan	nan	nan	nan	nan	nan	nan	nan	nan	nan	nan	nan	nan	nan	nan	nan	nan	nan	nan	nan	nan	nan	nan	nan	nan	nan	nan	nan	nan	nan	
97	0.96	-524.9813842773436	1304.506469726562	339.4603576660156	-491.0664978027343	1353.496704101562	245.2525024414062	-379.9377136230468	1272.500244140625	254.8627777099609	-502.8143310546874	974.5382080078125	244.9514617919922	-315.4207763671874	1026.858032226562	239.7253265380859	-326.0600891113281	885.5579223632812	349.7240600585938	-513.4523315429688	906.7805786132812	298.6201782226562	-524.2639770507812	899.72998046875	209.5956268310547	-340.0167236328124	859.8629150390625	144.9363555908203	-428.7751770019531	931.9323120117188	96.325080871582	-429.2768859863281	956.9544677734375	392.7256164550781	-410.6319274902343	618.9140014648438	395.7873229980469	-352.7746276855468	577.1348266601562	401.841552734375	-379.4542236328124	520.229736328125	376.5700988769531	-284.3837280273437	557.6529541015625	424.6810913085938	-282.3423156738281	465.1304321289062	367.1000366210938	-324.5940551757812	448.7176818847656	249.80810546875	-245.1804809570312	462.5789794921875	289.3695983886719	-286.9012756347656	429.2897644042969	368.0848999023438	-338.6581726074219	398.0167846679688	259.3716735839844	-258.1761474609375	390.58544921875	312.1151733398438	-262.2279052734375	284.0328979492188	315.4612121582031	-277.9607543945312	241.3287811279297	362.4661865234375	-269.4535522460938	189.3968505859375	317.2028198242188	-323.4302062988281	185.845458984375	408.5714111328125	-319.9826049804688	70.16514587402345	352.798583984375	-303.4245910644531	84.44036102294923	277.4977111816406	-366.2513732910156	34.38775253295901	314.2002868652344	-181.8969268798828	37.13362884521486	338.5150146484375	-207.3797149658203	16.36882209777833	376.2286987304688	-484.2798461914062	596.420654296875	125.4126052856445	-445.0133361816406	549.3399658203125	99.32600402832028	-472.7426147460937	499.3624267578126	134.4501190185547	-409.9625244140624	519.3003540039062	57.98796081542966	-418.2120666503906	420.9460144042969	110.8290557861328	-418.5656433105469	412.0688171386719	237.7221527099609	-348.7908630371094	394.5190124511719	169.4540863037109	-451.2738647460938	402.0044250488281	112.1359100341797	-444.2661437988281	378.363525390625	230.4940490722656	-425.8605041503906	341.841796875	156.0356292724609	-541.716064453125	262.0681457519532	162.750259399414	-600.3964233398438	251.3012084960938	126.444465637207	-620.6141357421875	207.0631561279297	168.5143737792968	-654.65234375	292.4976501464844	92.5795516967773	-726.7930297851562	201.3339843750001	147.7994537353515	-693.8408813476562	174.6382598876953	209.6279754638672	-762.6224365234375	221.5512847900391	203.0935516357421	-724.9892578125	55.26457214355473	146.7480316162109	-759.0536499023438	73.60085296630864	118.4732589721679	nan	nan	nan	nan	nan	nan	nan	nan	nan	nan	nan	nan	nan	nan	nan	nan	nan	nan	nan	nan	nan	nan	nan	nan	nan	nan	nan	nan	nan	nan	nan	nan	nan	nan	nan	nan	nan	nan	nan	nan	nan	nan	nan	nan	nan	nan	nan	nan	nan	nan	nan	nan	nan	nan	nan	nan	nan	nan	nan	nan	nan	nan	nan	nan	nan	nan	nan	nan	nan	nan	nan	nan	nan	nan	nan	nan	nan	nan	nan	nan	nan	nan	nan	nan	nan	nan	nan	nan	nan	nan	nan	nan	nan	nan	nan	nan	nan	nan	nan	nan	nan	nan	nan	nan	nan	nan	nan	nan	nan	nan	nan	nan	nan	nan	nan	nan	nan	nan	nan	nan	nan	nan	nan	nan	nan	nan	nan	nan	nan	nan	nan	nan	nan	nan	nan	nan	nan	nan	nan	nan	nan	nan	nan	nan	
98	0.97	-513.5588989257811	1306.139404296875	341.1211853027343	-479.9182434082031	1355.047241210938	246.7369537353515	-368.8589172363281	1273.935424804688	256.0392456054688	-492.2829284667968	976.0482788085938	246.2299499511718	-304.8472290039062	1028.095092773438	240.749526977539	-315.7462158203124	886.7454223632812	350.986083984375	-503.0537109374999	908.1864624023438	299.7765808105468	-513.8276977539062	900.8060913085938	210.7992095947265	-329.6903686523437	861.3154296875	146.0794982910156	-419.0346069335937	932.9269409179688	97.70737457275388	-418.8497009277343	958.3111572265625	393.8575439453125	-403.0923461914062	620.5225219726562	396.7354736328125	-345.7239379882812	577.8491821289062	402.7861022949219	-373.5031738281249	521.3307495117188	377.7759704589844	-277.6000366210937	557.4249877929688	425.3644714355469	-277.4261169433593	464.6761474609375	367.8782348632812	-320.272216796875	448.8493957519531	250.5732879638672	-240.4731903076172	461.7144775390625	289.9481201171875	-282.5148010253906	428.8612976074219	368.8027954101562	-334.906005859375	398.3108825683594	260.1923217773438	-254.329833984375	389.88671875	312.7307434082031	-259.8320922851562	283.3829650878906	316.0083618164062	-275.9971923828125	240.7902984619141	362.8784790039062	-268.1669006347656	188.8851013183594	317.5287170410156	-322.3650207519531	185.6937713623047	408.8185119628906	-320.0190734863281	70.11449432373048	352.7679748535156	-303.3439025878906	84.38657379150392	277.4613647460938	-366.3865356445312	34.30971908569338	314.1872253417969	-181.9819030761719	37.08795166015626	338.5126647949219	-207.5744781494141	16.30471801757814	376.2782287597656	-467.5730895996093	595.1525268554688	125.9921722412109	-426.9801330566406	549.4273681640625	99.55184936523435	-452.8661193847656	498.4681091308594	134.7153625488281	-391.4711914062499	520.554443359375	57.80792617797849	-396.2492065429688	422.0946655273438	110.3363342285156	-395.91552734375	413.8055114746094	237.427993774414	-326.1477966308594	396.4851684570312	168.3703918457031	-428.9247436523438	403.2239379882812	111.85595703125	-421.9269714355469	379.3494567871094	230.4345397949218	-402.9598388671875	342.9328918457031	155.2655029296875	-520.2758178710938	264.5338134765626	162.6272277832031	-579.3264770507812	254.8709411621094	126.7358703613281	-599.8243408203125	210.7751007080078	168.7584381103515	-633.1513671875	297.4310913085938	93.81943511962886	-706.28369140625	207.6684875488282	149.2293243408203	-673.1832275390625	179.2789916992188	210.4440155029297	-740.470458984375	228.7899475097657	205.4523773193359	-711.207275390625	61.02558135986332	145.9956512451171	-744.411376953125	82.33217620849614	118.36328125	nan	nan	nan	nan	nan	nan	nan	nan	nan	nan	nan	nan	nan	nan	nan	nan	nan	nan	nan	nan	nan	nan	nan	nan	nan	nan	nan	nan	nan	nan	nan	nan	nan	nan	nan	nan	nan	nan	nan	nan	nan	nan	nan	nan	nan	nan	nan	nan	nan	nan	nan	nan	nan	nan	nan	nan	nan	nan	nan	nan	nan	nan	nan	nan	nan	nan	nan	nan	nan	nan	nan	nan	nan	nan	nan	nan	nan	nan	nan	nan	nan	nan	nan	nan	nan	nan	nan	nan	nan	nan	nan	nan	nan	nan	nan	nan	nan	nan	nan	nan	nan	nan	nan	nan	nan	nan	nan	nan	nan	nan	nan	nan	nan	nan	nan	nan	nan	nan	nan	nan	nan	nan	nan	nan	nan	nan	nan	nan	nan	nan	nan	nan	nan	nan	nan	nan	nan	nan	nan	nan	nan	nan	nan	nan	
99	0.98	-502.1787719726562	1307.793701171875	342.6997985839843	-468.8022460937499	1356.595581054688	248.1350708007812	-357.8445739746093	1275.331909179688	257.1101989746094	-481.9255676269531	977.5654296875	247.5004577636718	-294.4130554199218	1029.276611328125	241.7138977050781	-305.6498718261718	887.8179321289062	352.1790466308594	-492.8523864746093	909.5396118164062	300.9031066894531	-503.6129760742187	901.9226684570312	212.0032348632812	-319.6194152832031	862.8302001953125	147.0777587890625	-409.6116943359374	933.9942626953125	99.0202713012695	-408.6275939941406	959.562255859375	394.9299926757812	-395.8565979003906	622.1092529296875	397.48095703125	-339.0634460449218	578.452880859375	403.5910034179688	-367.9045715332031	522.369384765625	378.7430419921875	-271.2742309570312	557.0850830078125	426.0485534667969	-272.8528137207031	464.16943359375	368.6543884277344	-316.0537414550781	448.953857421875	251.259780883789	-236.0218200683594	460.8131408691406	290.6138916015625	-278.4633483886719	428.3966674804688	369.5167236328125	-331.29248046875	398.5989379882812	260.9122619628906	-250.7596588134766	389.1753540039062	313.3731994628906	-257.6387023925781	282.7385864257812	316.5633239746094	-274.2162780761719	240.2504577636719	363.2994995117188	-267.0057678222656	188.3807678222657	317.8776550292969	-321.437255859375	185.5420684814453	409.0481872558594	-320.0491333007812	70.04919433593751	352.74169921875	-303.2727966308594	84.33200073242189	277.4299621582031	-366.5229797363281	34.24774551391604	314.1739501953125	-182.0798492431641	37.03232192993165	338.4938659667969	-207.7294921875	16.23842620849611	376.2912292480469	-451.0072021484374	594.1860961914062	126.4310836791992	-409.0836181640624	549.8709106445312	99.70780944824216	-433.0878295898437	498.0210876464844	134.9540100097656	-373.1775207519531	522.1761474609375	57.59599685668943	-374.334228515625	423.7019348144531	109.9171295166015	-374.1700744628906	415.6182250976562	237.0976104736328	-303.6159057617188	399.1445007324219	167.5035095214843	-406.5663146972656	404.8204956054688	111.6509170532226	-399.9962463378906	380.6941528320312	230.3399963378906	-379.9730529785156	344.5245361328125	154.7052917480468	-498.4318237304688	267.1484680175782	162.7492065429687	-557.7978515625	258.3683471679688	127.29052734375	-578.478271484375	214.4087677001953	169.3175201416015	-611.270751953125	302.0002136230469	95.21650695800777	-685.1591186523438	213.4341583251953	150.9226379394531	-651.8748779296875	183.6215057373047	211.5785064697265	-718.2334594726562	234.6646423339844	208.0159454345703	-694.205322265625	66.86802673339848	144.6104583740234	-726.8575439453125	90.49781036376957	117.8045425415039	nan	nan	nan	nan	nan	nan	nan	nan	nan	nan	nan	nan	nan	nan	nan	nan	nan	nan	nan	nan	nan	nan	nan	nan	nan	nan	nan	nan	nan	nan	nan	nan	nan	nan	nan	nan	nan	nan	nan	nan	nan	nan	nan	nan	nan	nan	nan	nan	nan	nan	nan	nan	nan	nan	nan	nan	nan	nan	nan	nan	nan	nan	nan	nan	nan	nan	nan	nan	nan	nan	nan	nan	nan	nan	nan	nan	nan	nan	nan	nan	nan	nan	nan	nan	nan	nan	nan	nan	nan	nan	nan	nan	nan	nan	nan	nan	nan	nan	nan	nan	nan	nan	nan	nan	nan	nan	nan	nan	nan	nan	nan	nan	nan	nan	nan	nan	nan	nan	nan	nan	nan	nan	nan	nan	nan	nan	nan	nan	nan	nan	nan	nan	nan	nan	nan	nan	nan	nan	nan	nan	nan	nan	nan	nan	
